<svg width="59" height="70" viewBox="0 0 59 70" fill="none" xmlns="http://www.w3.org/2000/svg">
<path d="M7.65324 19.2857L15.5193 19.3423L15.4815 29.2463L0 30.5999V0H15.4395L15.5193 7.7364H7.70644L7.65324 19.2857Z" fill="#17171A"/>
<path d="M17.4138 0V29.0773L36.7627 27.3849V0.00943442L17.4138 0ZM29.0228 19.3414H25.1537V7.7364H29.0228V19.3414Z" fill="#17171A"/>
<path d="M58.0472 0H38.6982V27.2159L58.0472 25.5235V14.6399L56.0066 13.5394L58.0472 12.4379V0ZM45.4419 7.7364H51.3009V9.0351L49.1428 10.3055H45.4419V7.7364ZM51.3009 19.3414H45.4419V16.6926H49.1428L51.3009 17.9621V19.3414Z" fill="#17171A"/>
<path d="M0 32.5015V58.0258H27.0888V30.1323L0 32.5015ZM19.3489 50.286H7.74248V38.6793L19.3489 38.6836V50.286Z" fill="#17171A"/>
<path d="M57.9893 50.2887H50.3069V57.9685H57.9893V50.2887Z" fill="#DC143C"/>
<path d="M58.0464 40.6178V48.2976H36.7625L36.705 58.0258H29.0801V29.9581L36.7076 29.2907L36.7625 40.6178H46.4365L50.0482 28.1241L57.946 27.4336L54.2133 40.6178H58.0464Z" fill="#17171A"/>
<path d="M0.842593 69.8319C0.61091 69.7212 0.435 69.5599 0.314011 69.3481C0.193021 69.1371 0.132094 68.8823 0.128662 68.5847V68.2801H1.02279V68.5486C1.02021 68.7408 1.07599 68.8892 1.19183 68.9938C1.30681 69.0985 1.46984 69.1499 1.68179 69.1499C1.87657 69.1499 2.02932 69.0925 2.13915 68.9775C2.24899 68.8626 2.3039 68.7004 2.3039 68.492V67.8581C2.3039 67.6763 2.26358 67.5364 2.18206 67.4378C2.10054 67.3391 1.98383 67.2894 1.83281 67.2894H1.03652V66.4445H1.83281C1.95209 66.4445 2.04391 66.4059 2.10912 66.3287C2.17434 66.2515 2.20695 66.1434 2.20695 66.0053V65.3757C2.20695 65.1972 2.16146 65.0591 2.0705 64.9631C1.97955 64.867 1.84912 64.819 1.67836 64.819C1.50761 64.819 1.36172 64.8679 1.2639 64.9656C1.16608 65.0634 1.1189 65.2024 1.12147 65.3842V65.6725H0.227344V65.3877C0.229918 65.09 0.28998 64.8344 0.405821 64.6217C0.521662 64.4089 0.692426 64.2468 0.915527 64.1361C1.13863 64.0255 1.40635 63.9697 1.71783 63.9697C2.00786 63.9697 2.25585 64.0255 2.46179 64.1361C2.66773 64.2468 2.82562 64.4089 2.93546 64.6217C3.04529 64.8344 3.1002 65.09 3.1002 65.3877V66.013C3.1002 66.1563 3.05644 66.3012 2.96977 66.4479C2.88311 66.5946 2.76212 66.7301 2.60766 66.8545C2.79215 66.9334 2.93631 67.0604 3.04014 67.2362C3.14397 67.4121 3.19631 67.6196 3.19631 67.8581V68.492C3.19631 68.8085 3.13624 69.0804 3.01783 69.3069C2.89856 69.5334 2.72608 69.7049 2.49954 69.8233C2.27301 69.9408 2.00015 70 1.68094 70C1.36173 70 1.07342 69.9443 0.841734 69.8336L0.842593 69.8319Z" fill="#17171A"/>
<path d="M4.74728 64.0308H5.45434L6.84443 69.9384H5.92971L5.10081 65.652L4.2719 69.9384H3.35718L4.74728 64.0308ZM4.27619 67.9998H5.95889V68.8327H4.27619V67.9998Z" fill="#17171A"/>
<path d="M12.1719 64.0307H12.9845V69.9383H12.1796V65.6399L12.2448 65.8998L11.3104 68.9347H10.8067L9.87223 65.9813L9.96148 65.6399V69.9383H9.13257V64.0307H9.97348L11.059 67.4919L12.1727 64.0307H12.1719Z" fill="#17171A"/>
<path d="M14.8401 64.0308H15.5471L16.9372 69.9384H16.0225L15.1936 65.652L14.3647 69.9384H13.45L14.8401 64.0308ZM14.369 67.9998H16.0517V68.8327H14.369V67.9998Z" fill="#17171A"/>
<path d="M17.4834 64.0308H18.3775V69.9384H17.4834V64.0308ZM17.9348 66.7972H19.0159C19.1103 66.7972 19.1918 66.7757 19.2596 66.732C19.3274 66.6891 19.3798 66.6265 19.4158 66.545C19.4527 66.4635 19.4707 66.3648 19.4707 66.2482V65.4479C19.4707 65.3261 19.4527 65.2231 19.4175 65.1391C19.3823 65.055 19.33 64.9907 19.2614 64.9461C19.1918 64.9015 19.1103 64.8792 19.0151 64.8792H17.9339V64.0299H19.0228C19.3077 64.0299 19.5505 64.0823 19.7522 64.1861C19.9538 64.2907 20.1083 64.4434 20.2155 64.645C20.3228 64.8466 20.376 65.0885 20.376 65.3698V66.3322C20.376 66.6085 20.3219 66.8452 20.2138 67.0416C20.1057 67.2381 19.9504 67.3873 19.7487 67.4903C19.5471 67.5932 19.3051 67.6447 19.0237 67.6447H17.9348V66.7954V66.7972Z" fill="#17171A"/>
<path d="M21.228 64.0307H22.1222V69.9383H21.228V64.0307ZM21.6545 66.5817H23.2316V67.4267H21.6545V66.5817ZM22.6173 67.3134L23.3895 66.8262L24.5231 69.9383H23.5757L22.6164 67.3134H22.6173ZM22.6499 66.7199L23.3569 64.0307H24.2751L23.2797 67.4027L22.6499 66.7199Z" fill="#17171A"/>
<path d="M24.989 64.0307H25.8831V69.9383H24.989V64.0307ZM25.4155 64.0307H27.5736V64.8876H25.4155V64.0307ZM25.4155 66.5783H27.3702V67.4318H25.4155V66.5783ZM25.4155 69.0814H27.5736V69.9383H25.4155V69.0814Z" fill="#17171A"/>
<path d="M28.1189 64.0308H31.0372V64.88H28.1189V64.0308ZM29.1349 64.518H30.0213V69.9375H29.1349V64.518Z" fill="#17171A"/>
<path d="M33.7415 69.934V65.7617L33.8351 65.8758L32.3557 69.9349H31.6238V64.0315H32.457V68.2321L32.3634 68.1181L33.8505 64.0307H34.5739V69.934H33.7407H33.7415Z" fill="#17171A"/>
<path d="M35.405 64.0308H36.2992V69.9384H35.405V64.0308ZM35.9053 66.6067H37.7991V67.4474H35.9053V66.6067ZM37.2834 64.0308H38.1775V69.9384H37.2834V64.0308Z" fill="#17171A"/>
<path d="M39.0083 64.0307H39.9024V69.9383H39.0083V64.0307ZM39.5729 64.0307H41.1861V64.8799H39.5729V64.0307Z" fill="#17171A"/>
<path d="M45.4688 69.934V65.7617L45.5623 65.8758L44.083 69.9349H43.3511V64.0315H44.1843V68.2321L44.0907 68.1181L45.5778 64.0307H46.3012V69.934H45.468H45.4688Z" fill="#17171A"/>
<path d="M48.8738 64.0308H49.7679V69.9384H48.8738V64.0308ZM49.4058 69.1012H50.3368C50.4887 69.1012 50.6054 69.0626 50.686 68.9854C50.7676 68.9082 50.8079 68.8001 50.8079 68.662V67.8823C50.8079 67.7579 50.7882 67.6515 50.7487 67.5632C50.7092 67.4748 50.6517 67.4079 50.5762 67.3624C50.5007 67.3161 50.4106 67.293 50.3076 67.293H49.4058V66.4601H50.2956C50.4363 66.4601 50.5453 66.4137 50.6226 66.3202C50.6998 66.2267 50.7384 66.0938 50.7384 65.9196V65.302C50.7384 65.1639 50.7006 65.0567 50.6243 64.9812C50.5488 64.9057 50.4415 64.8671 50.3033 64.8671H49.4049V64.0299H50.3437C50.6123 64.0299 50.8422 64.0763 51.0344 64.1698C51.2266 64.2633 51.3734 64.3997 51.4738 64.5798C51.5742 64.7599 51.6239 64.9761 51.6239 65.2274V65.857C51.6239 66.0414 51.5913 66.2027 51.5261 66.3425C51.4609 66.4823 51.3691 66.5964 51.2498 66.6856C51.1305 66.7749 50.9855 66.8358 50.8148 66.8684C51.0018 66.8958 51.1606 66.955 51.2927 67.0468C51.424 67.1386 51.5253 67.2587 51.5956 67.4062C51.666 67.5537 51.7012 67.7262 51.7012 67.9243V68.7169C51.7012 68.9742 51.6514 69.1938 51.5527 69.3748C51.454 69.5567 51.3107 69.6948 51.1237 69.7909C50.9366 69.8869 50.7101 69.935 50.4449 69.935H49.4049V69.0978L49.4058 69.1012Z" fill="#17171A"/>
<path d="M52.4314 64.0307H53.3255V69.9383H52.4314V64.0307ZM52.8579 64.0307H55.0159V64.8876H52.8579V64.0307ZM52.8579 66.5783H54.8126V67.4318H52.8579V66.5783ZM52.8579 69.0814H55.0159V69.9383H52.8579V69.0814Z" fill="#17171A"/>
<path d="M55.6443 64.0308H56.5384V69.9384H55.6443V64.0308ZM56.1154 69.0892H57.1399C57.2455 69.0892 57.3364 69.0643 57.4119 69.0163C57.4874 68.9674 57.5458 68.8987 57.587 68.8087C57.6282 68.7186 57.6479 68.6122 57.6479 68.4878V67.8377C57.6479 67.7047 57.6273 67.5915 57.587 67.4963C57.5466 67.401 57.4883 67.3307 57.4119 67.2827C57.3364 67.2355 57.2455 67.2115 57.1399 67.2115H56.1154V66.358H57.2129C57.4917 66.358 57.7294 66.4111 57.9259 66.5184C58.1224 66.6256 58.2735 66.7809 58.379 66.9833C58.4845 67.1866 58.5377 67.4319 58.5377 67.7184V68.6122C58.5377 68.8884 58.4845 69.126 58.379 69.325C58.2735 69.5241 58.1216 69.6759 57.9242 69.7797C57.726 69.8843 57.4892 69.9358 57.2129 69.9358H56.1154V69.0866V69.0892ZM56.2046 64.0308H58.2288V64.88H56.2046V64.0308Z" fill="#17171A"/>
</svg>
