<svg xmlns="http://www.w3.org/2000/svg" width="162" height="162" viewBox="0 0 162 162" fill="none"><metadata><rdf:RDF xmlns:rdf="http://www.w3.org/1999/02/22-rdf-syntax-ns#" xmlns:dc="http://purl.org/dc/elements/1.1/"><rdf:Description><dc:creator>RealFaviconGenerator</dc:creator><dc:source>https://realfavicongenerator.net</dc:source></rdf:Description></rdf:RDF></metadata><rect width="162" height="162" fill="#FAF4ED"></rect><path d="M33.8722 59.5417L51.2237 59.6666L51.1404 81.5133L16.9902 84.499V17.0006H51.0476L51.2237 34.0659H33.9896L33.8722 59.5417Z" fill="#17171A"></path><path d="M55.4023 17.0006V81.1405L98.0834 77.4073V17.0214L55.4023 17.0006ZM81.0102 59.6647H72.4755V34.0659H81.0102V59.6647Z" fill="#17171A"></path><path d="M145.035 17.0006H102.354V77.0346L145.035 73.3014V49.2938L140.533 46.8662L145.035 44.4367V17.0006ZM117.229 34.0659H130.153V36.9306L125.393 39.7328H117.229V34.0659ZM130.153 59.6647H117.229V53.8217H125.393L130.153 56.6221V59.6647Z" fill="#17171A"></path><path d="M16.9902 88.6973V145H76.7445V83.4712L16.9902 88.6973ZM59.6713 127.927H34.0691V102.325L59.6713 102.334V127.927Z" fill="#17171A"></path><path d="M144.905 127.931H127.959V144.872H144.905V127.931Z" fill="#DC143C"></path><path d="M145.033 106.596V123.537H98.0841L97.9572 144.996H81.1377V83.0827L97.9629 81.6106L98.0841 106.596H119.424L127.39 79.0373L144.812 77.5141L136.578 106.596H145.033Z" fill="#17171A"></path></svg>