<svg width="452" height="275" viewBox="0 0 452 275" fill="none" xmlns="http://www.w3.org/2000/svg">
<path d="M357.885 224.745C362.054 226.794 363.501 238.842 364.303 245.905L83.926 245.876C82.565 245.876 81.4189 241.306 82.3215 241.177L86.7769 240.59L91.261 239.988C92.3785 239.845 92.3784 237.195 93.0804 235.848C98.209 226.077 104.985 218.485 112.435 210.548C120.372 202.11 126.403 192.196 132.606 182.125L110.086 161.022C107.621 158.716 109.154 149.633 112.492 149.504L144.325 148.215L130.214 132.513C128.308 130.379 124.942 124.691 126.833 122.342C134.483 112.844 141.388 104.162 150.356 96.44C159.325 88.7184 174.238 82.4866 176.716 77.9308C177.289 76.8707 174.653 74.249 173.364 74.0485L159.697 71.9139C157.691 71.5987 154.969 66.8997 155.285 64.9657C156.531 57.5161 194.71 55.9832 188.621 55.4531L214.91 57.7453C222.961 58.4473 229.695 56.5276 237.201 63.2609C228.004 72.358 222.718 66.2837 214.552 68.9197L194.438 98.79C191.988 102.414 193.091 107.471 197.776 109.448C214.337 116.425 254.507 109.334 274.564 111.526L311.239 130.665C312.084 132.614 308.975 136.41 308.503 138.273C306.282 147.183 310.136 159.948 317.643 165.306C322.213 168.572 325.651 170.22 326.826 175.836C329.175 186.953 334.92 195.835 342.914 203.6C356.166 216.479 342.284 217.095 357.871 224.759L357.885 224.745ZM126.331 200.677C112.564 215.849 121.36 218.184 107.249 225.275L104.198 240.361L218.176 240.303L226.056 215.648C237.746 205.09 248.591 194.975 257.731 182.927C262.487 176.652 261.083 169.36 255.883 164.69L244.393 154.361C216.93 156.323 201.3 157.083 175.728 169.16L162.376 163.687L143.351 182.784L154.325 183.873C158.594 184.288 163.322 188.5 165.972 192.912C155.557 193.729 146.431 191.68 137.95 187.855L126.331 200.663V200.677ZM140.915 163.229C132.563 159.919 126.131 157.828 118.223 158.458C123.452 166.466 128.394 170.736 135.844 176.581C138.595 172.211 140.228 168.386 140.93 163.229H140.915ZM232.359 228.671L223.491 240.275L358.802 240.332C351.008 231.264 343.286 223.298 338.888 213.069C328.402 188.729 310.408 170.435 284.377 161.925L280.767 173.128C277.916 181.953 259.264 183.744 243.763 209.918C241.155 214.316 237.56 216.98 232.56 218.943L232.359 228.671Z" fill="#DC143C"/>
<path d="M176.071 45.154L197.231 49.2943C205.984 51.0134 212.503 47.6755 219.866 41.7588L224.121 49.0937C237.23 51.7871 238.949 39.8677 245.08 35.8277L250.496 42.2029C260.395 42.7473 267.272 34.2519 269.693 26.1289L281.311 28.1059L260.968 45.7558C276.526 49.1081 288.503 39.0225 295.322 26L306.282 27.7048C298.617 40.3118 286.555 46.8589 272.83 50.598C250.41 56.6866 197.303 59.7667 176.071 45.1684V45.154Z" fill="#DC143C"/>
</svg>
