<svg width="906" height="811" viewBox="0 0 906 811" fill="none" xmlns="http://www.w3.org/2000/svg">
<path d="M381.6 742.22C367.71 742.74 366.06 733.55 359.87 721.68C346.68 706.13 334.35 691.07 322.27 674.47C307.15 653.69 294.76 631.95 282.69 609.28C273.11 591.29 261.38 594.68 245.31 589L232.79 568.16L222.61 552.26C209.77 556.37 198 555 185.73 550.36L165.55 540.81C157.61 537.05 136.71 539.1 122.52 525.57C91.7804 515.32 77.2104 479.83 82.2504 449.02C83.6204 440.65 87.3504 434.28 91.4004 427.09C93.2004 423.89 94.0204 418.95 96.2204 415.98C103.61 406 112.86 399.46 122.97 392.49L134.98 374.8C142.69 363.44 153.83 356.43 166.61 352.33C177.13 348.95 187.41 347 198.35 349.29L242.05 334.05C248.62 325.56 257.32 321.14 267.21 317.97C274.69 315.57 281.56 313.59 289.88 314.6C360.57 284.5 430.63 241.97 486.58 189.01C494.33 181.68 500.86 173.89 509.45 167.65C511.89 165.88 514.73 165.61 515.66 162.15C518.48 151.67 525.27 144.18 530.85 135.36C536.55 126.36 541.86 116.63 545.96 106.77C550.97 94.7399 554.47 83.0699 561.52 72.1399C570.84 57.6699 582.84 45.3399 599.71 40.3299C643.08 27.4399 687.26 67.8299 713.56 100.57C746.65 141.78 768.67 186.07 787.7 235.45C813.21 301.63 828.15 371.25 831.13 442.29C832.8 482.05 827.15 537.28 805.74 569.86C785.06 601.34 754.11 610.06 718.97 596.51C696.09 587.69 683.19 571.62 671.44 565.25L654.08 555.85L628.44 543.25C622.45 540.31 615.33 539.56 608.65 538.04C581.13 531.78 554.43 526.71 526.22 523.86C466.65 517.84 407.75 517.91 348.38 524.94C345.77 527.9 342.51 531.53 341.6 535.02C339.88 541.61 343.54 548.45 348.23 552.63L362.98 565.8C366.12 568.6 367.78 572.05 364.92 575.66L366.76 581.23C365.97 590.89 368.24 599.99 374.57 607.34C387.56 622.43 398 638.8 407.11 656.49C411.8 665.6 418.32 671.36 427.95 674.71C433.91 676.78 439.37 682.36 439.2 689.03C438.86 702.41 417.13 723.03 404.77 732.31C397.75 737.58 390.56 741.86 381.59 742.19L381.6 742.22Z" fill="#DC143C"/>
</svg>
