<svg width="60" height="60" viewBox="0 0 60 60" fill="none" xmlns="http://www.w3.org/2000/svg">
<path d="M22.4716 18C23.5089 18 24.4671 18.0804 25.3464 18.3215C26.2256 18.4823 26.9467 18.8139 27.5889 19.2158C28.231 19.6177 28.7052 20.1905 29.0312 20.924C29.3473 21.6575 29.5153 22.5518 29.5153 23.5264C29.5153 24.6619 29.2782 25.6365 28.7151 26.37C28.231 27.1035 27.4407 27.7567 26.4726 28.239C27.8358 28.6409 28.8731 29.3744 29.5054 30.3491C30.1376 31.3237 30.5427 32.5395 30.5427 33.9262C30.5427 35.0616 30.3056 36.0363 29.9005 36.8502C29.5054 37.664 28.8632 38.3976 28.1421 38.8799C27.4209 39.3722 26.5417 39.7741 25.5835 40.0153C24.6252 40.2564 23.667 40.4172 22.7087 40.4172L12 40.4373V18H22.4716ZM21.8295 27.1035C22.7087 27.1035 23.4299 26.8624 23.9831 26.4504C24.5363 26.0384 24.7833 25.315 24.7833 24.4207C24.7833 23.9284 24.7042 23.446 24.5462 23.1245C24.3881 22.803 24.151 22.5518 23.825 22.3106C23.5089 22.1498 23.1829 21.9891 22.7877 21.9087C22.3926 21.8283 21.9875 21.8283 21.5134 21.8283H16.8802V27.1136C16.8802 27.1035 21.8295 27.1035 21.8295 27.1035ZM22.0666 36.6994C22.5506 36.6994 23.0248 36.619 23.4299 36.5387C23.825 36.4583 24.2301 36.2975 24.5462 36.0463C24.8623 35.7951 25.1093 35.554 25.3464 35.152C25.5044 34.7501 25.6625 34.2578 25.6625 33.685C25.6625 32.5496 25.3464 31.7357 24.7042 31.163C24.0621 30.6706 23.1829 30.4294 22.1456 30.4294H16.8802V36.6894H22.0666V36.6994Z" fill="#17171A"/>
<path d="M37.4974 36.619C38.1395 37.2722 39.0978 37.5937 40.3721 37.5937C41.2514 37.5937 42.0515 37.3526 42.6937 36.9406C43.3358 36.4482 43.731 35.9659 43.889 35.4736H47.8011C47.1589 37.4229 46.2007 38.8095 44.9263 39.7038C43.6519 40.5177 42.1306 41 40.2931 41C39.0187 41 37.8925 40.7588 36.8553 40.3469C35.818 39.945 35.0178 39.3722 34.2966 38.5583C33.5755 37.8248 33.0223 36.9305 32.6963 35.8755C32.3011 34.8204 32.1332 33.685 32.1332 32.3788C32.1332 31.163 32.2912 30.0175 32.6963 28.9624C33.1013 27.9074 33.6545 27.0131 34.3757 26.1992C35.0968 25.4657 35.976 24.8126 36.9343 24.4107C37.9716 24.0087 39.0089 23.7575 40.2931 23.7575C41.6564 23.7575 42.8517 23.9987 43.889 24.5714C44.9263 25.1442 45.7265 25.7872 46.3686 26.7619C47.0107 27.6562 47.4849 28.7112 47.8109 29.8467C47.969 30.9821 48.048 32.1276 47.969 33.4238H36.3811C36.3811 34.7501 36.8553 35.9659 37.4974 36.619ZM42.5356 28.0782C41.9725 27.5055 41.0933 27.1839 40.056 27.1839C39.3349 27.1839 38.7816 27.3447 38.2976 27.5858C37.8135 27.827 37.4974 28.1586 37.1813 28.4801C36.8651 28.8017 36.6972 29.2136 36.6182 29.6156C36.5391 30.0175 36.4601 30.3491 36.4601 30.6706H43.6519C43.4939 29.4648 43.0888 28.6509 42.5356 28.0782ZM35.5019 19.5474H44.4521V21.7379H35.5019V19.5474Z" fill="#17171A"/>
</svg>
