<svg width="126" height="126" viewBox="0 0 126 126" fill="none" xmlns="http://www.w3.org/2000/svg">
<path d="M16.6091 41.8534L33.68 41.9762L33.5981 63.4697L0 66.4073V0H33.5068L33.68 16.7894H16.7246L16.6091 41.8534Z" fill="#FAF4ED"/>
<path d="M37.7915 0V63.103L79.7826 59.4302V0.0204744L37.7915 0ZM62.9854 41.9744H54.5887V16.7894H62.9854V41.9744Z" fill="#FAF4ED"/>
<path d="M125.975 0H83.9839V59.0635L125.975 55.3906V31.7712L121.547 29.3828L125.975 26.9926V0ZM98.619 16.7894H111.334V19.6078L106.651 22.3647H98.619V16.7894ZM111.334 41.9744H98.619V36.2259H106.651L111.334 38.981V41.9744Z" fill="#FAF4ED"/>
<path d="M0 70.5376V125.93H58.7883V65.396L0 70.5376ZM41.9911 109.133H16.8028V83.9445L41.9911 83.9538V109.133Z" fill="#FAF4ED"/>
<path d="M125.848 109.137H109.175V125.804H125.848V109.137Z" fill="#DC143C"/>
<path d="M125.974 88.1473V104.814H79.7833L79.6585 125.926H63.1108V65.0137L79.6641 63.5654L79.7833 88.1473H100.778L108.616 61.0337L125.756 59.5352L117.655 88.1473H125.974Z" fill="#FAF4ED"/>
</svg>
