<svg width="40" height="40" viewBox="0 0 40 40" fill="none" xmlns="http://www.w3.org/2000/svg">
<g clip-path="url(#clip0_2008_57)">
<path d="M13.3022 30.6293V29.3603L14.915 29.0363C14.9342 28.1903 14.9438 27.3983 14.9438 26.6603C14.963 25.9403 14.9726 25.2473 14.9726 24.5813V17.2643C14.9726 16.5263 14.963 15.9593 14.9438 15.5633C14.9438 15.1493 14.9246 14.6723 14.8862 14.1323L13.1006 13.8893V12.8363L18.7454 11.0273L19.235 11.2973L19.3502 12.8093C20.5598 11.6213 21.9806 11.0273 23.6126 11.0273C24.6686 11.0273 25.619 11.2883 26.4638 11.8103C27.3086 12.3323 27.9806 13.1063 28.4798 14.1323C28.9982 15.1583 29.2574 16.4183 29.2574 17.9123C29.2574 19.3523 28.9694 20.6033 28.3934 21.6653C27.8174 22.7093 27.059 23.5103 26.1182 24.0683C25.1966 24.6263 24.1886 24.9053 23.0942 24.9053C21.6158 24.9053 20.4062 24.4373 19.4654 23.5013V24.5543C19.4654 25.2203 19.4654 25.9133 19.4654 26.6333C19.4846 27.3533 19.5038 28.1273 19.523 28.9553L21.3662 29.3603V30.6293H13.3022ZM21.5102 13.3763C21.1454 13.3763 20.7998 13.4483 20.4734 13.5923C20.1662 13.7363 19.859 13.9163 19.5518 14.1323V21.9623C20.1278 22.4123 20.7518 22.6373 21.4238 22.6373C22.2878 22.6373 22.9886 22.2593 23.5262 21.5033C24.083 20.7473 24.3614 19.5683 24.3614 17.9663C24.3614 16.3643 24.0926 15.2033 23.555 14.4833C23.0366 13.7453 22.355 13.3763 21.5102 13.3763Z" fill="#FAF4ED"/>
</g>
<defs>
<clipPath id="clip0_2008_57">
<rect width="17" height="20" fill="white" transform="translate(13 11)"/>
</clipPath>
</defs>
</svg>
