<svg width="60" height="60" viewBox="0 0 60 60" fill="none" xmlns="http://www.w3.org/2000/svg">
<path d="M10.9721 29.6753C11.057 29.6337 11.1421 29.5942 11.2249 29.5567C12.6651 28.9032 14.1245 28.2913 15.5817 27.6794C15.6603 27.6794 15.792 27.5899 15.8663 27.5608C15.9789 27.5129 16.0915 27.4671 16.2041 27.4193C16.4208 27.3277 16.6375 27.2382 16.852 27.1466C17.2854 26.9655 17.7166 26.7845 18.1499 26.6034C19.0145 26.2413 19.879 25.8791 20.7436 25.5149C22.4727 24.7906 24.204 24.0643 25.9332 23.34C27.6623 22.6158 29.3935 21.8894 31.1227 21.1651C32.8518 20.4408 34.5831 19.7145 36.3122 18.9902C38.0413 18.2659 39.7726 17.5396 41.5018 16.8153C41.8863 16.653 42.3026 16.4116 42.7147 16.3408C43.061 16.2804 43.3987 16.1639 43.7471 16.0994C44.4077 15.9766 45.1363 15.9266 45.7693 16.1951C45.9881 16.2888 46.1899 16.4199 46.3578 16.5843C47.1607 17.3627 47.0481 18.6406 46.8782 19.7353C45.695 27.3651 44.5118 34.997 43.3265 42.6269C43.165 43.6737 42.9441 44.8226 42.1008 45.4844C41.387 46.0443 40.3716 46.1067 39.4901 45.8695C38.6085 45.6301 37.831 45.1285 37.0684 44.6353C33.9054 42.5832 30.7403 40.5311 27.5773 38.479C26.8253 37.992 25.9884 37.3551 25.9969 36.4706C26.0012 35.9378 26.3261 35.4633 26.6575 35.0408C29.4063 31.5276 33.3723 29.1134 36.3228 25.7626C36.7392 25.2901 37.0663 24.4368 36.4949 24.1642C36.155 24.0019 35.7641 24.2225 35.454 24.4327C31.5539 27.0863 27.6559 29.7419 23.7558 32.3955C22.4834 33.2613 21.1494 34.1521 19.6157 34.3644C18.2434 34.5558 16.8627 34.1812 15.535 33.7983C14.4219 33.4778 13.3109 33.1489 12.2041 32.8097C11.6157 32.6307 11.0082 32.4371 10.5536 32.0313C10.099 31.6254 9.83777 30.9428 10.1118 30.4017C10.2839 30.0624 10.6174 29.8481 10.9679 29.6732L10.9721 29.6753Z" fill="#17171A"/>
</svg>
