<svg width="60" height="60" viewBox="0 0 60 60" fill="none" xmlns="http://www.w3.org/2000/svg">
<path fill-rule="evenodd" clip-rule="evenodd" d="M49.0587 21.5961C49.3552 20.6958 49.0587 20.041 47.7455 20.041H43.382C42.2806 20.041 41.7723 20.6139 41.4758 21.2278C41.4758 21.2278 39.2304 26.4663 36.0956 29.863C35.0789 30.8452 34.6129 31.1726 34.0622 31.1726C33.7656 31.1726 33.3844 30.8452 33.3844 29.9449V21.5551C33.3844 20.4911 33.0455 20 32.1135 20H25.2507C24.5729 20 24.1493 20.4911 24.1493 20.9822C24.1493 22.0054 25.7167 22.2509 25.8861 25.1157V31.3363C25.8861 32.6869 25.632 32.9324 25.0813 32.9324C23.5986 32.9324 19.9977 27.653 17.8372 21.637C17.4135 20.4502 16.9899 20 15.8885 20H11.4827C10.2118 20 10 20.573 10 21.1869C10 22.2919 11.4827 27.8577 16.9051 35.2242C20.5061 40.258 25.632 42.959 30.2496 42.959C33.0455 42.959 33.3844 42.3452 33.3844 41.3221V37.5161C33.3844 36.2883 33.6385 36.0837 34.5282 36.0837C35.1636 36.0837 36.3074 36.411 38.8915 38.8256C41.8569 41.6904 42.3653 43 44.0175 43H48.3809C49.6517 43 50.2449 42.3861 49.906 41.1993C49.5247 40.0125 48.0844 38.2937 46.2204 36.2473C45.2036 35.1015 43.6785 33.8328 43.2126 33.2188C42.5771 32.4004 42.7466 32.073 43.2126 31.3363C43.1703 31.3363 48.508 24.0516 49.0587 21.5961Z" fill="#17171A"/>
</svg>
