<svg width="60" height="60" viewBox="0 0 60 60" fill="none" xmlns="http://www.w3.org/2000/svg">
<path d="M30.0001 15.6001C22.0477 15.6001 15.6001 22.0477 15.6001 30.0001C15.6001 32.7015 16.3589 35.2202 17.6532 37.3806L15.729 44.4001L22.8985 42.5181C24.9953 43.7102 27.4159 44.4001 30.0001 44.4001C37.9525 44.4001 44.4001 37.9525 44.4001 30.0001C44.4001 22.0477 37.9525 15.6001 30.0001 15.6001ZM25.0712 23.2829C25.3052 23.2829 25.5456 23.2815 25.7532 23.2923C26.01 23.2983 26.2895 23.3171 26.5571 23.9087C26.8751 24.6119 27.5675 26.376 27.6563 26.5548C27.7451 26.7336 27.8081 26.9442 27.6845 27.1782C27.5669 27.4182 27.5057 27.5635 27.3329 27.7759C27.1541 27.9823 26.9582 28.2386 26.7962 28.3946C26.6174 28.5734 26.4328 28.7695 26.6392 29.1259C26.8456 29.4823 27.5624 30.6506 28.622 31.5938C29.984 32.8106 31.1331 33.1846 31.4907 33.3634C31.8483 33.5422 32.0554 33.5143 32.2618 33.2743C32.4742 33.0403 33.1538 32.2374 33.3938 31.8798C33.6278 31.5222 33.8667 31.5841 34.1907 31.7017C34.5195 31.8193 36.273 32.683 36.6306 32.8618C36.9882 33.0406 37.2226 33.1291 37.3126 33.2743C37.405 33.4243 37.4051 34.1384 37.1087 34.9712C36.8123 35.8028 35.3568 36.607 34.704 36.6634C34.0452 36.7246 33.4304 36.9595 30.422 35.7751C26.7932 34.3459 24.5047 30.6292 24.3259 30.3892C24.1471 30.1552 22.8728 28.4568 22.8728 26.7048C22.8728 24.9468 23.7945 24.0858 24.1173 23.7282C24.4461 23.3706 24.8312 23.2829 25.0712 23.2829Z" fill="#17171A"/>
</svg>
