<svg width="24" height="24" viewBox="0 0 24 24" fill="none" xmlns="http://www.w3.org/2000/svg">
<path d="M20.7864 10.6736C20.7904 10.5824 20.8 10.4928 20.8 10.4C20.8 6.8656 17.9344 4 14.4 4C11.912 4 9.76 5.4232 8.7016 7.4968C8.2368 7.3088 7.732 7.2 7.2 7.2C5.176 7.2 3.5208 8.708 3.2544 10.6592C1.3624 11.3032 0 13.0904 0 15.2C0 17.8512 2.1488 20 4.8 20H19.2C21.8512 20 24 17.8512 24 15.2C24 13.1056 22.6568 11.3296 20.7864 10.6736ZM14.9656 14.9656L12.5656 17.3656C12.4096 17.5216 12.2048 17.6 12 17.6C11.7952 17.6 11.5904 17.5216 11.4344 17.3656L9.0344 14.9656C8.7216 14.6528 8.7216 14.1472 9.0344 13.8344C9.3472 13.5216 9.8528 13.5216 10.1656 13.8344L11.2 14.8688V10.4C11.2 9.9584 11.5576 9.6 12 9.6C12.4424 9.6 12.8 9.9584 12.8 10.4V14.8688L13.8344 13.8344C14.1472 13.5216 14.6528 13.5216 14.9656 13.8344C15.2784 14.1472 15.2784 14.6528 14.9656 14.9656Z" fill="#FAF4ED"/>
</svg>
