<svg width="60" height="60" viewBox="0 0 60 60" fill="none" xmlns="http://www.w3.org/2000/svg">
<path d="M29.3027 13C33.9696 13 34.5542 13.0212 36.3848 13.1055C38.2154 13.1898 39.4652 13.4868 40.5586 13.918C41.7035 14.3587 42.7425 15.0476 43.6016 15.9385C44.4761 16.8119 45.151 17.8685 45.582 19.0361C46.0069 20.1496 46.2974 21.4222 46.3818 23.2832C46.4661 25.1525 46.4844 25.748 46.4844 30.5C46.4844 35.2536 46.4645 35.8487 46.3818 37.7148C46.299 39.5761 46.007 40.8494 45.582 41.9629C45.151 43.1308 44.475 44.1889 43.6016 45.0635C42.7425 45.9544 41.7035 46.6411 40.5586 47.0801C39.4652 47.5127 38.2152 47.8087 36.3877 47.8945C34.5541 47.9805 33.9695 48 29.3027 48C24.636 48 24.0516 47.9789 22.2197 47.8945C20.3922 47.8102 19.1422 47.5127 18.0488 47.0801C16.9024 46.641 15.8636 45.9531 15.0049 45.0635C14.1308 44.1896 13.4541 43.1314 13.0225 41.9639C12.5992 40.8503 12.309 39.5778 12.2246 37.7168C12.1403 35.8475 12.1211 35.2521 12.1211 30.5C12.1211 25.7467 12.1418 25.1514 12.2246 23.2871C12.3074 21.4227 12.5992 20.1497 13.0225 19.0361C13.4547 17.8685 14.1313 16.8104 15.0059 15.9365C15.8634 15.0465 16.9013 14.3578 18.0469 13.918C19.1403 13.4868 20.3922 13.1914 22.2197 13.1055C24.0516 13.0196 24.636 13 29.3027 13ZM29.3027 16.1533C24.7157 16.1533 24.1718 16.1706 22.3604 16.2549C20.6843 16.3328 19.775 16.6182 19.1689 16.8584C18.3677 17.1766 17.7937 17.5535 17.1924 18.166C16.6227 18.7307 16.1843 19.4181 15.9092 20.1777C15.6733 20.795 15.3939 21.7217 15.3174 23.4287C15.2346 25.2739 15.2168 25.8278 15.2168 30.5C15.2168 35.1722 15.2346 35.726 15.3174 37.5713C15.3939 39.278 15.6733 40.2041 15.9092 40.8213C16.184 41.58 16.6224 42.2694 17.1924 42.834C17.7469 43.4147 18.4239 43.8626 19.1689 44.1426C19.775 44.3827 20.6846 44.6673 22.3604 44.7451C24.1718 44.8294 24.7142 44.8467 29.3027 44.8467C33.8918 44.8467 34.4341 44.8295 36.2461 44.7451C37.9214 44.6673 38.8306 44.3827 39.4365 44.1426C40.2379 43.8244 40.8117 43.4465 41.4131 42.834C41.9832 42.2694 42.4224 41.58 42.6973 40.8213C42.933 40.2041 43.2125 39.2778 43.2891 37.5713C43.3717 35.726 43.3887 35.1722 43.3887 30.5C43.3887 25.8278 43.3717 25.2739 43.2891 23.4287C43.2125 21.7217 42.9331 20.795 42.6973 20.1777C42.385 19.3619 42.0142 18.7783 41.4131 18.166C40.8585 17.5854 40.1827 17.1387 39.4365 16.8584C38.8306 16.6182 37.9217 16.3328 36.2461 16.2549C34.4341 16.1706 33.8903 16.1533 29.3027 16.1533ZM29.3027 21.5049C30.4624 21.5049 31.6111 21.7374 32.6826 22.1895C33.7541 22.6415 34.7279 23.3044 35.5479 24.1396C36.3679 24.9748 37.018 25.9664 37.4619 27.0576C37.9057 28.1489 38.1348 29.3188 38.1348 30.5C38.1348 31.6813 37.9057 32.8511 37.4619 33.9424C37.018 35.0336 36.3679 36.0253 35.5479 36.8604C33.8917 38.5474 31.6449 39.4951 29.3027 39.4951C26.9605 39.495 24.7138 38.5473 23.0576 36.8604C21.4016 35.1736 20.4717 32.8855 20.4717 30.5C20.4717 28.1146 21.4016 25.8265 23.0576 24.1396C23.8776 23.3044 24.8515 22.6415 25.9229 22.1895C26.9943 21.7374 28.143 21.5049 29.3027 21.5049ZM31.2344 25.0039C30.4363 24.7133 29.5846 24.6067 28.7412 24.6914C27.8979 24.7761 27.0833 25.0494 26.3564 25.4932C25.6296 25.9369 25.0089 26.5401 24.5381 27.2578C24.0674 27.9753 23.7583 28.79 23.6338 29.6436C23.5093 30.4973 23.5725 31.3693 23.8184 32.1953C24.0642 33.0212 24.4868 33.7813 25.0557 34.4209C25.6246 35.0607 26.3256 35.5639 27.1084 35.8945C28.334 36.4142 29.6989 36.4851 30.9697 36.0938C32.2405 35.7022 33.3385 34.8732 34.0762 33.749C34.8136 32.6247 35.1449 31.2741 35.0137 29.9287C34.8824 28.5834 34.2964 27.3264 33.3564 26.3721C32.7571 25.762 32.0321 25.2945 31.2344 25.0039ZM38.6299 19.1709C38.9091 19.1668 39.1865 19.2192 39.4453 19.3262C39.7041 19.4331 39.9393 19.5918 40.1367 19.793C40.3344 19.9942 40.4897 20.2344 40.5947 20.498C40.6997 20.7616 40.7521 21.0437 40.748 21.3281C40.744 21.6126 40.6839 21.8938 40.5713 22.1543C40.4589 22.4146 40.2958 22.6495 40.0928 22.8447C39.6975 23.2242 39.1729 23.4318 38.6299 23.4238C38.0868 23.4158 37.5678 23.1929 37.1836 22.8018C36.7994 22.4105 36.5803 21.8815 36.5723 21.3281C36.5645 20.775 36.7679 20.2404 37.1406 19.8379C37.3322 19.6309 37.5636 19.4652 37.8193 19.3506C38.0749 19.2361 38.3506 19.175 38.6299 19.1709Z" fill="#17171A"/>
</svg>
