<svg width="60" height="60" viewBox="0 0 60 60" fill="none" xmlns="http://www.w3.org/2000/svg">
<path d="M29.9999 12.3999C20.2803 12.3999 12.3999 20.2803 12.3999 29.9999C12.3999 37.4564 17.039 43.8247 23.5862 46.3884C23.4322 44.9966 23.2928 42.8596 23.6478 41.3402C23.9675 39.9674 25.7114 32.5915 25.7114 32.5915C25.7114 32.5915 25.1848 31.537 25.1848 29.9794C25.1848 27.5315 26.6031 25.7055 28.369 25.7055C29.8708 25.7055 30.5954 26.8334 30.5954 28.1842C30.5954 29.6948 29.6347 31.952 29.1375 34.0435C28.7224 35.7962 30.016 37.2247 31.7438 37.2247C34.8722 37.2247 37.276 33.9262 37.276 29.1654C37.276 24.9516 34.2488 22.0051 29.9251 22.0051C24.9179 22.0051 21.9787 25.7612 21.9787 29.6435C21.9787 31.1556 22.561 32.7778 23.2884 33.6607C23.4322 33.8352 23.4527 33.9878 23.4102 34.1652C23.2767 34.7211 22.9804 35.9164 22.9218 36.1614C22.8455 36.484 22.6666 36.5515 22.3336 36.396C20.1351 35.3723 18.7608 32.1588 18.7608 29.5775C18.7608 24.0262 22.7942 18.9266 30.39 18.9266C36.4958 18.9266 41.2404 23.2767 41.2404 29.092C41.2404 35.1582 37.4154 40.0392 32.1075 40.0392C30.324 40.0392 28.6476 39.1123 28.0742 38.0182C28.0742 38.0182 27.1912 41.3783 26.9771 42.2026C26.5796 43.7308 25.5075 45.6478 24.7888 46.8167C26.4359 47.3242 28.1856 47.5999 29.9999 47.5999C39.7195 47.5999 47.5999 39.7195 47.5999 29.9999C47.5999 20.2803 39.7195 12.3999 29.9999 12.3999Z" fill="#17171A"/>
</svg>
