<svg width="283" height="220" viewBox="0 0 283 220" fill="none" xmlns="http://www.w3.org/2000/svg">
<path d="M275.885 198.745C280.054 200.794 281.501 212.842 282.303 219.905L1.92599 219.876C0.565006 219.876 -0.581079 215.306 0.321468 215.177L4.77692 214.59L9.26101 213.988C10.3785 213.845 10.3784 211.195 11.0804 209.848C16.2092 200.077 22.9855 192.485 30.435 184.548C38.3717 176.11 44.403 166.196 50.6062 156.125L28.0855 135.022C25.6214 132.716 27.1543 123.633 30.4923 123.504L62.325 122.215L48.2138 106.513C46.3084 104.379 42.9418 98.6914 44.8328 96.3419C52.483 86.8437 59.3882 78.162 68.3564 70.4402C77.3245 62.7184 92.238 56.4866 94.7165 51.9308C95.2895 50.8707 92.6535 48.249 91.3641 48.0485L77.697 45.9139C75.6913 45.5987 72.9693 40.8997 73.2845 38.9657C74.5309 31.5161 112.71 29.9832 106.621 29.4531L132.91 31.7453C140.961 32.4473 147.695 30.5276 155.201 37.2609C146.004 46.358 140.718 40.2837 132.552 42.9197L112.438 72.7897C109.988 76.4142 111.091 81.4714 115.776 83.4484C132.337 90.4252 172.507 83.3337 192.564 85.5256L229.239 104.665C230.084 106.614 226.975 110.41 226.503 112.273C224.282 121.183 228.136 133.948 235.643 139.306C240.213 142.572 243.651 144.22 244.826 149.836C247.175 160.953 252.92 169.835 260.914 177.6C274.166 190.479 260.284 191.095 275.871 198.759L275.885 198.745ZM44.3314 174.677C30.564 189.849 39.3602 192.184 25.2489 199.275L22.1975 214.361L136.176 214.303L144.056 189.648C155.746 179.09 166.591 168.975 175.731 156.927C180.487 150.652 179.083 143.36 173.883 138.69L162.393 128.361C134.93 130.323 119.3 131.083 93.7279 143.16L80.376 137.687L61.3508 156.784L72.3247 157.873C76.5939 158.288 81.3215 162.5 83.9718 166.912C73.5567 167.729 64.431 165.68 55.9499 161.855L44.3314 174.663V174.677ZM58.9154 137.229C50.5632 133.919 44.1308 131.828 36.2228 132.458C41.4518 140.466 46.3944 144.736 53.844 150.581C56.5946 146.211 58.2277 142.386 58.9297 137.229H58.9154ZM150.359 202.671L141.491 214.275L276.802 214.332C269.008 205.264 261.286 197.298 256.888 187.069C246.402 162.729 228.408 144.435 202.377 135.925L198.767 147.128C195.916 155.953 177.264 157.744 161.763 183.918C159.155 188.316 155.56 190.98 150.56 192.943L150.359 202.671Z" fill="#FAF4ED"/>
<path d="M94.0714 19.154L115.231 23.2943C123.984 25.0134 130.503 21.6755 137.866 15.7588L142.121 23.0937C155.23 25.7871 156.949 13.8677 163.08 9.82774L168.496 16.2029C178.395 16.7473 185.272 8.25185 187.693 0.12893L199.311 2.10594L178.968 19.7558C194.526 23.1081 206.503 13.0225 213.322 0L224.282 1.7048C216.617 14.3118 204.555 20.8589 190.83 24.598C168.41 30.6866 115.303 33.7667 94.0714 19.1684V19.154Z" fill="#FAF4ED"/>
</svg>
