<svg width="71" height="70" viewBox="0 0 71 70" fill="none" xmlns="http://www.w3.org/2000/svg">
<path d="M9.23238 23.2649L18.7215 23.3332L18.6759 35.2808L0 36.9137V0H18.6252L18.7215 9.33268H9.29656L9.23238 23.2649Z" fill="#17171A"/>
<path d="M21.0068 0V35.077L44.3481 33.0353V0.0113811L21.0068 0ZM35.0112 23.3322H30.3438V9.33268H35.0112V23.3322Z" fill="#17171A"/>
<path d="M70.0249 0H46.6836V32.8315L70.0249 30.7899V17.6606L67.5633 16.333L70.0249 15.0043V0ZM54.8187 9.33268H61.8866V10.8993L59.2833 12.4318H54.8187V9.33268ZM61.8866 23.3322H54.8187V20.1368H59.2833L61.8866 21.6683V23.3322Z" fill="#17171A"/>
<path d="M0 39.2096V70.0005H32.6782V36.3516L0 39.2096ZM23.3413 60.6637H9.34003V46.6621L23.3413 46.6673V60.6637Z" fill="#17171A"/>
<path d="M69.9541 60.666H60.6865V69.9304H69.9541V60.666Z" fill="#DC143C"/>
<path d="M70.0241 48.9983V58.2627H44.3486L44.2793 69.9981H35.0811V36.1391L44.2824 35.334L44.3486 48.9983H56.0187L60.3756 33.9267L69.903 33.0938L65.4002 48.9983H70.0241Z" fill="#17171A"/>
</svg>
