<svg width="60" height="60" viewBox="0 0 60 60" fill="none" xmlns="http://www.w3.org/2000/svg">
<path fill-rule="evenodd" clip-rule="evenodd" d="M30.8545 45.9058C27.616 45.9058 26.111 45.431 23.495 43.5317C21.8402 45.6684 16.6003 47.3382 16.3718 44.4813C16.3718 42.3367 15.899 40.5244 15.3632 38.5459C14.7249 36.1085 14 33.394 14 29.4608C14 20.0671 21.6748 13 30.7679 13C39.8688 13 46.9999 20.4153 46.9999 29.5479C47.0304 38.5392 39.8069 45.8579 30.8545 45.9058ZM30.9885 21.1196C26.5601 20.8901 23.1089 23.9686 22.3445 28.7961C21.7142 32.7926 22.8331 37.6596 23.7865 37.9128C24.2435 38.0236 25.3939 37.0898 26.111 36.3696C27.2967 37.1923 28.6774 37.6864 30.1138 37.802C34.7023 38.0237 38.623 34.5153 38.9312 29.9119C39.1105 25.2988 35.5776 21.3915 30.9885 21.1275L30.9885 21.1196Z" fill="#17171A"/>
</svg>
