<svg width="60" height="60" viewBox="0 0 60 60" fill="none" xmlns="http://www.w3.org/2000/svg">
<path d="M44.1495 40.3165L44.2336 43.3545L46 43.3846L45.9886 45.5911L42.3517 45.5997L41.9753 43.4405C41.0016 45.3086 39.1867 46.2405 37.1252 45.9466C34.4635 45.5667 33.0107 43.4463 33.005 40.89L32.9908 34.4026L30.9549 34.3352L30.9706 32.0642L35.4115 32.0599L35.4529 40.8241C35.4572 41.68 35.7509 42.5402 36.3439 43.1266C37.0511 43.8262 38.1146 43.9524 39.0727 43.6413C40.5611 43.1595 41.6759 41.7502 41.6859 40.1488L41.7187 34.3925L39.3678 34.3467L39.3792 32.0571L44.1267 32.0599L44.1481 40.3165H44.1495Z" fill="#17171A"/>
<path d="M37.9749 17.4836C36.2841 18.0944 35.239 19.5983 34.9753 21.3288C34.6873 23.2241 35.3773 25.1438 36.9669 26.2191C39.0142 27.604 41.7586 27.0592 43.2841 25.1022L45.1204 26.4642C43.9527 28.1388 42.1521 29.1123 40.1148 29.28C35.7779 29.637 32.1881 26.1216 32.3706 21.8535C32.5559 17.5094 36.5179 14.3266 40.8376 15.1223C42.2833 15.389 43.6248 15.8808 44.7012 16.8972L44.6984 20.2936L42.4201 20.3022L42.3702 17.9266C41.0401 17.1868 39.4676 16.9446 37.9763 17.4836H37.9749Z" fill="#17171A"/>
<path d="M31.8588 17.6155L29.6247 17.6843L25.3748 29.1051L23.1722 29.1252L19.0719 17.6671L16.7153 17.6413L16.7053 15.3618L20.9367 15.3403L24.3997 25.4134L27.8726 15.3532L31.8459 15.3517L31.8588 17.6155Z" fill="#17171A"/>
<path d="M22.3495 37.8018L22.3125 43.3918L28.0736 43.4133V45.6011L17.709 45.5997L17.6962 43.3803L19.9288 43.3517V34.189L17.7076 34.1445L17.7047 32.0685L21.8819 32.0585L22.1086 34.6291C23.8237 32.0313 25.5758 31.9051 28.4086 32.0255V36.1631L26.1319 36.1775V34.1474C25.2009 34.0886 24.3327 34.4972 23.617 35.1553C22.9711 35.8635 22.3567 36.7424 22.3495 37.799V37.8018Z" fill="#17171A"/>
<path d="M15.3595 45.6341L13 45.6585L13.0171 43.3015L15.3267 43.3L15.3595 45.6341Z" fill="#17171A"/>
</svg>
