<svg width="1026" height="986" viewBox="0 0 1026 986" fill="none" xmlns="http://www.w3.org/2000/svg">
<circle cx="527.076" cy="530.035" r="313.544" transform="rotate(81.135 527.076 530.035)" fill="#222327"/>
<circle cx="547.276" cy="470.983" r="50.7272" transform="rotate(-105.555 547.276 470.983)" fill="#DC143C"/>
<path d="M877.993 869.17L593.202 531.165L988.896 726.784L877.993 869.17Z" fill="#D0C9C3"/>
<path d="M812.622 639.638C798.45 670.784 779.279 699.411 755.968 724.341L593.203 531.164L812.622 639.638Z" fill="#FAF4ED"/>
<rect x="344.529" y="601.206" width="142.763" height="65.6201" transform="rotate(51.135 344.529 601.206)" fill="#D0C9C3"/>
<rect x="760.88" y="79.2383" width="58.4055" height="424.526" transform="rotate(51.135 760.88 79.2383)" fill="#DC143C"/>
<rect x="561.146" y="51.877" width="110.662" height="655.79" transform="rotate(51.135 561.146 51.877)" fill="#FAF4ED"/>
<rect x="141.164" y="119.856" width="804.527" height="19.4201" transform="rotate(51.135 141.164 119.856)" fill="#D0C9C3"/>
</svg>
